<svg width="12" height="24" viewBox="0 0 12 24" fill="none" xmlns="http://www.w3.org/2000/svg">
<path d="M3.52882 12.8201C3.72298 12.8201 3.88039 12.6626 3.88039 12.4685V2.82218C3.88039 1.65374 4.83099 0.703142 5.99946 0.703142C7.16785 0.703142 8.1185 1.65374 8.1185 2.82218V4.23783C8.1185 4.43199 8.27586 4.5894 8.47007 4.5894C8.66428 4.5894 8.82164 4.43199 8.82164 4.23783V2.82218C8.82164 1.26603 7.55561 0 5.99946 0C4.44332 0 3.17725 1.26603 3.17725 2.82218V12.4685C3.17725 12.6626 3.33466 12.8201 3.52882 12.8201Z" fill="black"/>
<path d="M9.1641 14.9889C8.94659 14.8145 8.8219 14.5594 8.8219 14.2889V5.64405C8.8219 5.44989 8.66454 5.29248 8.47033 5.29248C8.27612 5.29248 8.11876 5.44989 8.11876 5.64405V14.2889C8.11876 14.7738 8.33945 15.2289 8.72416 15.5374C9.76233 16.3701 10.3577 17.6098 10.3577 18.9388C10.3577 20.1143 9.89672 21.2163 9.05966 22.0419C8.22273 22.8672 7.11327 23.3116 5.93752 23.2964C3.59072 23.2637 1.66369 21.3274 1.64184 18.9802C1.62933 17.6333 2.22582 16.3776 3.27833 15.535C3.66108 15.2285 3.88064 14.7744 3.88064 14.2891V13.8747C3.88064 13.6805 3.72323 13.5231 3.52907 13.5231C3.33491 13.5231 3.1775 13.6805 3.1775 13.8747V14.2891C3.1775 14.5597 3.05408 14.8137 2.83887 14.986C1.61676 15.9644 0.924169 17.4226 0.938701 18.9868C0.950982 20.3102 1.4759 21.5596 2.41666 22.5049C3.35746 23.4502 4.60436 23.981 5.92768 23.9994C5.95196 23.9998 5.9761 23.9999 6.00033 23.9999C7.3393 23.9999 8.59868 23.484 9.55336 22.5425C10.5255 21.5838 11.0608 20.304 11.0608 18.9388C11.0609 17.3954 10.3696 15.9557 9.1641 14.9889Z" fill="black"/>
<path d="M6.91673 1.86995C6.6554 1.61832 6.3117 1.4872 5.94935 1.50099C5.23641 1.52794 4.67793 2.11872 4.67793 2.846V15.0745C4.67793 15.3845 4.52047 15.6667 4.25675 15.8295L4.13285 15.906C3.06056 16.568 2.42741 17.7145 2.43912 18.9728C2.45689 20.8908 4.03141 22.4728 5.94897 22.4996C5.96618 22.4998 6.00021 22.4999 6.00025 22.4999C7.01911 22.4999 7.95799 22.0826 8.64397 21.3248C9.19135 20.7201 9.5154 19.9385 9.55656 19.1239C9.62218 17.8228 8.97492 16.5898 7.86738 15.906L7.74339 15.8295C7.47966 15.6667 7.32226 15.3844 7.32226 15.0745V2.82214C7.32226 2.45993 7.1782 2.12177 6.91673 1.86995ZM5.97593 2.20361C5.98399 2.20333 5.99205 2.20314 6.00007 2.20314C6.1609 2.20314 6.3124 2.26418 6.42903 2.37644C6.55156 2.49448 6.61911 2.65278 6.61911 2.82214V4.32865H5.38111V2.84595C5.38107 2.50413 5.64793 2.21599 5.97593 2.20361ZM7.37396 16.4278L7.49795 16.5043C8.40078 17.0617 8.90779 18.0278 8.85435 19.0884C8.82135 19.7415 8.56152 20.3681 8.12271 20.8529C7.57178 21.4616 6.81801 21.7968 6.00133 21.7968C6.00035 21.7968 5.97293 21.7968 5.95919 21.7966C5.9591 21.7966 5.95896 21.7966 5.95886 21.7966C4.42006 21.7751 3.15656 20.5055 3.14231 18.9664C3.13289 17.9564 3.64131 17.036 4.50238 16.5044L4.62627 16.4279C5.09897 16.136 5.38116 15.6301 5.38116 15.0746V5.03183H6.61916V5.80946H6.35173C6.15752 5.80946 6.00016 5.96687 6.00016 6.16103C6.00016 6.35519 6.15752 6.5126 6.35173 6.5126H6.61916V7.49658H6.35173C6.15752 7.49658 6.00016 7.65399 6.00016 7.84815C6.00016 8.04231 6.15752 8.19972 6.35173 8.19972H6.61916V9.1837H6.35173C6.15752 9.1837 6.00016 9.34111 6.00016 9.53527C6.00016 9.72943 6.15752 9.88684 6.35173 9.88684H6.61916V10.8708H6.35173C6.15752 10.8708 6.00016 11.0282 6.00016 11.2224C6.00016 11.4165 6.15752 11.574 6.35173 11.574H6.61916V12.5579H6.35173C6.15752 12.5579 6.00016 12.7153 6.00016 12.9095C6.00016 13.1037 6.15752 13.2611 6.35173 13.2611H6.61916V15.0746C6.61911 15.6301 6.90131 16.1359 7.37396 16.4278Z" fill="black"/>
</svg>
