<svg width="24" height="24" viewBox="0 0 24 24" fill="none" xmlns="http://www.w3.org/2000/svg">
<g clip-path="url(#clip0_66_27)">
<path d="M23.961 16.171C23.998 16.072 24.011 15.963 23.977 15.853L22 9.42794V3.49998C22 2.122 20.879 1 19.5 1H4.5C3.12098 1 2.00002 2.122 2.00002 3.49998V9.42798L0.0230156 15.853C-0.0109688 15.9619 0.00201563 16.071 0.039 16.171C0.015 16.277 0 16.386 0 16.5V20.5V22.5C0 22.776 0.224016 23 0.500016 23H2.50003C2.77598 23 3 22.776 3 22.5V21H21V22.5C21 22.776 21.224 23 21.5 23H23.5C23.776 23 24 22.776 24 22.5V20.5V16.5C24 16.386 23.985 16.277 23.961 16.171ZM3 3.49998C3 2.67297 3.67298 1.99998 4.5 1.99998H19.5C20.327 1.99998 21 2.67297 21 3.49998V8.99997H19.641L19.175 7.13598C19.007 6.46698 18.408 5.99997 17.719 5.99997H14.5C13.673 5.99997 13 6.67295 13 7.49997V8.99997H11V7.50095C11 6.67394 10.327 6.00095 9.49997 6.00095H6.28097C5.59195 6.00095 4.99298 6.46895 4.82498 7.13697L4.359 8.99997H3V3.49998ZM18.614 9.80795C18.518 9.92997 18.374 9.99995 18.219 9.99995H14.5C14.225 9.99995 14 9.77594 14 9.49994V7.49997C14 7.22397 14.225 6.99995 14.5 6.99995H17.72C17.95 6.99995 18.149 7.15497 18.205 7.37795L18.705 9.37797C18.743 9.52895 18.71 9.68495 18.614 9.80795ZM10.001 7.49997V9.49497C10.001 9.49698 10 9.49797 10 9.49998C10 9.50097 10 9.502 10 9.502C9.99905 9.77702 9.77503 10 9.50105 10H5.78203C5.62603 10 5.48302 9.93002 5.38702 9.808C5.29102 9.685 5.25802 9.52802 5.29603 9.37802L5.79605 7.378C5.85206 7.156 6.05105 7 6.28205 7H9.50105C9.77602 6.99995 10.001 7.22397 10.001 7.49997ZM2.86898 9.99995H4.374C4.42702 10.15 4.49602 10.294 4.59698 10.4239C4.88498 10.7899 5.316 10.9999 5.781 10.9999H9.50002C10.151 10.9999 10.701 10.5799 10.908 9.99995H13.092C13.299 10.581 13.849 10.9999 14.5 10.9999H18.219C18.684 10.9999 19.114 10.7899 19.402 10.4239C19.503 10.2949 19.572 10.15 19.625 9.99995H21.131L22.675 15.018C22.617 15.011 22.56 15 22.5 15H1.5C1.44 15 1.383 15.011 1.326 15.018L2.86898 9.99995ZM2.00002 22H0.999984V21H1.99997V22H2.00002ZM23 22H22V21H23V22ZM23 20H0.999984V16.5C0.999984 16.224 1.22498 16 1.5 16H22.5C22.775 16 23 16.224 23 16.5V20Z" fill="black"/>
</g>
<defs>
<clipPath id="clip0_66_27">
<rect width="24" height="24" fill="white"/>
</clipPath>
</defs>
</svg>
